<?xml version="1.0" encoding="UTF-8" standalone="no"?>
<!-- Created with Inkscape (http://www.inkscape.org/) -->

<svg
   version="1.1"
   id="svg50328"
   width="213.33333"
   height="213.33333"
   viewBox="0 0 213.33333 213.33333"
   sodipodi:docname="fennec3.svg"
   inkscape:export-filename="C:\Users\rdash\Downloads\fennec3.png"
   inkscape:export-xdpi="96"
   inkscape:export-ydpi="96"
   inkscape:version="1.1 (c68e22c387, 2021-05-23)"
   xmlns:inkscape="http://www.inkscape.org/namespaces/inkscape"
   xmlns:sodipodi="http://sodipodi.sourceforge.net/DTD/sodipodi-0.dtd"
   xmlns="http://www.w3.org/2000/svg"
   xmlns:svg="http://www.w3.org/2000/svg">
  <defs
     id="defs50332" />
  <sodipodi:namedview
     id="namedview50330"
     pagecolor="#ffffff"
     bordercolor="#666666"
     borderopacity="1.0"
     inkscape:pageshadow="2"
     inkscape:pageopacity="0.0"
     inkscape:pagecheckerboard="0"
     showgrid="false"
     inkscape:zoom="2.6814816"
     inkscape:cx="89.129832"
     inkscape:cy="118.40469"
     inkscape:window-width="1920"
     inkscape:window-height="1017"
     inkscape:window-x="1912"
     inkscape:window-y="1"
     inkscape:window-maximized="1"
     inkscape:current-layer="g50334"
     inkscape:snap-to-guides="false"
     showguides="true"
     inkscape:guide-bbox="true" />
  <g
     inkscape:groupmode="layer"
     inkscape:label="Image"
     id="g50334">
    <g
       id="g51138"
       transform="translate(6.0165156,4.8687479)"
       inkscape:export-filename="C:\Users\rdash\Downloads\fennec3.png"
       inkscape:export-xdpi="96"
       inkscape:export-ydpi="96">
      <path
         style="fill:#f8e5bb;stroke-width:1.33333"
         d="m 85.20531,198.08456 c -4.719318,-2.05398 -10.452168,-8.95459 -12.630462,-15.20326 -1.275894,-3.66002 -2.090235,-4.21464 -6.188363,-4.21464 -3.354904,0 -7.351938,-1.7345 -13.826554,-6 -5.009084,-3.3 -9.683924,-6 -10.388533,-6 -0.704608,0 -2.073964,-0.7629 -3.043011,-1.69533 -0.969048,-0.93244 -5.661905,-4.4558 -10.428572,-7.82971 -4.766666,-3.3739 -11.830818,-8.97933 -15.698114,-12.4565 L 5.9702534,138.363 14.335034,132.96926 c 4.600629,-2.96656 12.864781,-9.39327 18.364781,-14.28159 17.867616,-15.88048 28.371817,-21.248566 38.032519,-19.436208 6.724754,1.261568 18.78734,10.740608 23.961935,18.829808 2.5515,3.98863 5.25399,7.25206 6.005541,7.25206 0.75156,0 3.45405,-3.26343 6.00555,-7.25206 5.17459,-8.0892 17.23718,-17.56824 23.96193,-18.829808 9.66071,-1.812358 20.16491,3.555728 38.03252,19.436208 5.5,4.88832 13.76415,11.31503 18.36479,14.28159 l 8.36477,5.39374 -7.03144,6.32212 c -3.8673,3.47717 -10.93145,9.0826 -15.69812,12.4565 -4.76666,3.37391 -9.45952,6.89727 -10.42857,7.82971 -0.96904,0.93243 -2.3384,1.69533 -3.04301,1.69533 -0.7046,0 -5.37944,2.7 -10.38854,6 -6.47461,4.2655 -10.47165,6 -13.82654,6 -4.09814,0 -4.91247,0.55462 -6.18836,4.21464 -2.1218,6.08659 -7.45773,12.59052 -12.31912,15.0157 -5.34422,2.66605 -25.330495,2.78581 -31.30036,0.18756 z m 24.45258,-17.03902 c 10.93449,-10.79866 10.23577,-11.71221 -8.95808,-11.71221 -14.237674,0 -15.999996,0.25239 -15.999996,2.2914 0,2.832 13.160555,16.37527 15.912526,16.37527 1.10199,0 5.17249,-3.12951 9.04555,-6.95446 z m -35.396397,-39.2522 c 3.272541,-2.9616 3.426508,-15.82477 0.231671,-19.35502 -2.747558,-3.03602 -8.134807,-3.14593 -11.355028,-0.23167 -3.272541,2.96161 -3.426508,15.82477 -0.231671,19.35503 2.747558,3.03601 8.134807,3.14593 11.355028,0.23166 z m 63.999997,0 c 3.27254,-2.9616 3.42651,-15.82477 0.23167,-19.35502 -2.74756,-3.03602 -8.1348,-3.14593 -11.35502,-0.23167 -3.27255,2.96161 -3.42651,15.82477 -0.23167,19.35503 2.74756,3.03601 8.1348,3.14593 11.35502,0.23166 z M 3.4717458,57.888888 c 0.063979,-1.553257 0.3799204,-1.8692 0.8055556,-0.805556 0.385161,0.9625 0.337792,2.1125 -0.105263,2.555556 -0.4430554,0.443055 -0.758187,-0.344445 -0.7002926,-1.75 z m 193.3333342,0 c 0.064,-1.553257 0.37992,-1.8692 0.80555,-0.805556 0.38516,0.9625 0.3378,2.1125 -0.1052,2.555556 -0.44307,0.443055 -0.75819,-0.344445 -0.7003,-1.75 z m -167.565281,-7.555555 -2.539984,-3 3,2.539984 c 2.81926,2.386957 3.606988,3.460015 2.539984,3.460015 -0.253009,0 -1.603009,-1.349999 -3,-2.999999 z m 141.460011,0.333333 c 1.32732,-1.466667 2.71331,-2.666667 3.07998,-2.666667 0.36666,0 -0.41932,1.2 -1.74664,2.666667 -1.32732,1.466667 -2.71331,2.666666 -3.07998,2.666666 -0.36666,0 0.41932,-1.199999 1.74664,-2.666666 z"
         id="path51146" />
      <path
         style="fill:#f7c0bb;stroke-width:1.33333"
         d="M 23.135506,94.999999 C 19.850299,91.123864 15.687487,83.22778 11.184445,72.331048 7.1603004,62.593182 6.9089864,61.004763 6.8074924,44.666666 6.6806544,24.248814 9.3152234,13.532118 16.371309,5.7637155 20.346234,1.3875184 21.191531,1.0419503 26.466807,1.6365504 35.668422,2.6737057 41.789651,8.7118568 48.110815,22.9868 c 2.357516,5.323926 4.07982,9.904525 3.827342,10.179109 -0.252477,0.274582 -2.152644,-0.925418 -4.222592,-2.666667 -4.557063,-3.833422 -14.71871,-8.57406 -15.882995,-7.409776 -0.462032,0.462032 1.344085,3.257644 4.013593,6.212471 5.918501,6.551072 6.055901,7.38825 0.763405,4.651394 -4.307048,-2.227261 -9.422425,-2.203638 -10.105766,0.04667 -0.22269,0.733333 3.47477,4.333333 8.216576,8 4.741804,3.666667 8.627008,7.036069 8.633784,7.487563 0.0068,0.451492 -3.380816,-0.298508 -7.527982,-1.666667 -4.147165,-1.368159 -8.028334,-2.487561 -8.62482,-2.487561 -3.134579,0 1.912236,5.22566 13.581871,14.063171 7.187004,5.442778 13.460028,10.531438 13.940052,11.308134 1.27282,2.059465 -1.212395,4.520038 -11.23304,11.12167 -4.911735,3.235867 -10.656827,8.048709 -12.766871,10.695208 -4.389642,5.505658 -4.885045,5.667476 -7.587866,2.478483 z M 170.67625,92.521516 c -2.11004,-2.646499 -7.85513,-7.459341 -12.76686,-10.695208 -10.02066,-6.601632 -12.50587,-9.062205 -11.23304,-11.12167 0.48002,-0.776696 6.75304,-5.865356 13.94005,-11.308134 11.66963,-8.837511 16.71645,-14.063171 13.58187,-14.063171 -0.59648,0 -4.47766,1.119402 -8.62482,2.487562 -4.14717,1.368159 -7.53476,2.118159 -7.52798,1.666667 0.007,-0.451493 3.89197,-3.820896 8.63378,-7.487563 4.7418,-3.666666 8.43927,-7.266666 8.21658,-8 -0.68335,-2.250306 -5.79872,-2.273929 -10.10578,-0.04667 -5.29249,2.736856 -5.15509,1.899677 0.76342,-4.651395 2.6695,-2.954826 4.47562,-5.750438 4.01358,-6.21247 -1.16428,-1.164284 -11.32593,3.576353 -15.88298,7.409776 -2.06995,1.741249 -3.97012,2.941249 -4.2226,2.666666 -0.25248,-0.274584 1.46982,-4.855182 3.82734,-10.179109 6.32116,-14.2749429 12.4424,-20.313094 21.64402,-21.3502493 5.27526,-0.5946 6.12057,-0.249032 10.09549,4.1271651 7.05608,7.7684032 9.69065,18.4850992 9.56381,38.9029502 -0.10146,16.338097 -0.3528,17.926516 -4.37694,27.664383 -5.9706,14.447999 -12.22474,25.002282 -14.81559,25.002282 -0.48779,0 -2.61331,-2.165317 -4.72335,-4.811816 z"
         id="path51144" />
      <path
         style="fill:#f1c367;stroke-width:1.33333"
         d="m 6.0331494,136.9002 c 0,-0.23822 1.493673,-4.82471 3.319273,-10.1922 3.6873286,-10.8412 8.3080436,-19.41744 12.5111086,-23.22117 l 2.77343,-2.50992 -3.375763,-4.011861 C 17.256221,92.205405 12.753683,83.553391 7.7928314,71.084426 4.4288674,62.62919 4.1779864,60.614791 4.1705544,41.999999 4.1630634,23.23787 4.3766494,21.546114 7.6214154,14.666666 13.572789,2.0487585 15.339909,0.74819457 27.268974,0.20646698 39.752114,-0.36042249 45.315008,1.981154 56.406949,12.47145 67.542595,23.00308 71.366481,33.123959 71.366481,52.065627 v 9.267705 h 29.333329 29.33334 v -9.267705 c 0,-18.941668 3.82388,-29.062547 14.95953,-39.594177 11.09195,-10.490296 16.65484,-12.83187249 29.13797,-12.26498302 11.92907,0.54172759 13.69619,1.84229152 19.64756,14.46019902 3.24478,6.879448 3.45835,8.571204 3.45087,27.333333 -0.008,18.614792 -0.25832,20.629191 -3.62228,29.084427 -4.96085,12.468965 -9.46339,21.120979 -13.46837,25.880623 l -3.37576,4.011861 2.77342,2.50992 c 1.52539,1.38046 4.21758,4.97416 5.98264,7.98601 3.48855,5.95277 10.21863,24.60072 9.23386,25.5855 -1.08595,1.08595 -15.80114,-9.30222 -26.05278,-18.39194 -17.90786,-15.87817 -28.3825,-21.225291 -38.03252,-19.414938 -6.72475,1.261568 -18.78734,10.740608 -23.96193,18.829808 -2.5515,3.98863 -5.25399,7.25206 -6.00555,7.25206 -0.751551,0 -3.454041,-3.26343 -6.005541,-7.25206 C 89.519674,109.99207 77.457088,100.51303 70.732334,99.251462 61.082323,97.441109 50.60768,102.78823 32.699815,118.6664 20.766242,129.24741 6.0331494,139.32142 6.0331494,136.9002 Z M 30.723372,92.521516 C 32.833416,89.875017 38.491316,85.074313 43.296483,81.853284 59.412716,71.050147 58.515232,72.608679 57.709628,56.824066 57.287503,48.553146 56.172371,41.241671 54.918653,38.52477 53.770276,36.036146 50.802376,29.341868 48.323321,23.648594 41.826496,8.7283097 35.833103,2.6922677 26.466807,1.6365504 21.191531,1.0419503 20.346234,1.3875184 16.371309,5.7637155 9.3152234,13.532118 6.6806544,24.248814 6.8074924,44.666666 c 0.101494,16.338097 0.352808,17.926516 4.3769526,27.664382 5.970594,14.448001 12.224734,25.002284 14.815577,25.002284 0.487798,0 2.613306,-2.165317 4.72335,-4.811816 z m 147.540748,2.478483 c 3.28521,-3.876135 7.44803,-11.772219 11.95107,-22.668951 4.02414,-9.737866 4.27545,-11.326285 4.37694,-27.664382 0.1268,-20.417852 -2.50773,-31.134548 -9.56381,-38.9029505 -3.97492,-4.3761971 -4.82023,-4.7217652 -10.09549,-4.1271651 -9.36631,1.0557173 -15.3597,7.0917593 -21.85652,22.0120436 -2.47906,5.693274 -5.44696,12.387552 -6.59534,14.876176 -1.25372,2.716901 -2.36885,10.028376 -2.79097,18.299296 -0.8056,15.784613 -1.70309,14.226081 14.41315,25.029218 4.80516,3.221029 10.46306,8.021733 12.5731,10.668232 4.38964,5.505658 4.88506,5.667476 7.58787,2.478483 z"
         id="path51142" />
      <path
         style="fill:#25292a;stroke-width:1.33333"
         d="m 91.654267,180.95806 c -10.707105,-10.84177 -10.097861,-11.62473 9.045543,-11.62473 14.46591,0 16,0.22809 16,2.37888 0,2.86749 -13.25525,16.28779 -16.08747,16.28779 -1.101991,0 -5.133121,-3.16887 -8.958073,-7.04194 z M 62.906465,141.56168 c -3.194837,-3.53026 -3.04087,-16.39342 0.231671,-19.35503 3.220221,-2.91426 8.60747,-2.80435 11.355028,0.23167 3.194837,3.53025 3.04087,16.39342 -0.231671,19.35502 -3.220221,2.91427 -8.60747,2.80435 -11.355028,-0.23166 z m 64.000005,0 c -3.19484,-3.53026 -3.04088,-16.39342 0.23167,-19.35503 3.22022,-2.91426 8.60746,-2.80435 11.35502,0.23167 3.19484,3.53025 3.04087,16.39342 -0.23167,19.35502 -3.22022,2.91427 -8.60746,2.80435 -11.35502,-0.23166 z"
         id="path51140" />
    </g>
    <path
       style="fill:#ffffff;stroke-width:0.372928"
       d="m 61.119187,77.048223 c 0.240021,-0.963314 0.06429,-1.272561 -1.623748,-2.857372 C 58.454346,73.213422 53.620215,69.301353 48.752927,65.49737 36.649341,56.037923 30.799194,50.345302 33.181572,50.345302 c 0.302697,0 2.992841,0.758309 5.978099,1.68513 7.249872,2.250839 9.808127,2.835698 10.129466,2.315761 0.289862,-0.469007 -0.651098,-1.325257 -8.099961,-7.370771 -6.102698,-4.952963 -8.653657,-7.507583 -8.332514,-8.344471 0.341515,-0.889973 2.626338,-1.45164 4.757182,-1.169435 1.054098,0.139603 3.246677,0.830027 4.872399,1.534275 4.739142,2.052954 5.067411,1.643602 1.798977,-2.243329 -3.761528,-4.473335 -6.005156,-7.413746 -6.18673,-8.108088 -0.263681,-1.008316 0.953342,-0.85668 4.415321,0.550131 4.035531,1.63988 7.306541,3.515971 11.229503,6.440693 1.860666,1.387199 3.548025,2.380686 3.891054,2.290983 0.460343,-0.120383 0.974157,0.701874 2.141243,3.426636 0.844559,1.971765 1.71289,4.279883 1.929627,5.129151 1.168708,4.57951 2.553996,21.478197 2.089829,25.493168 -0.252841,2.187033 -1.351801,4.841018 -2.342437,5.656977 -0.537812,0.442979 -0.573658,0.380208 -0.333443,-0.58389 z"
       id="path51457" />
    <path
       style="fill:#ffffff;stroke-width:0.372928"
       d="m 151.3643,76.726535 c -1.26024,-1.927042 -1.31544,-2.073145 -1.6269,-4.306298 -0.52341,-3.752705 0.50804,-18.629987 1.69851,-24.498968 0.74317,-3.66378 3.44212,-9.882596 4.28903,-9.882596 0.35961,0 1.96896,-0.974774 3.57633,-2.166163 3.975,-2.946292 7.60043,-5.054354 11.34465,-6.596521 3.04199,-1.252936 4.81678,-1.623775 4.81678,-1.006461 0,0.638674 -2.29155,3.775192 -5.36582,7.344357 -1.76634,2.05069 -3.21153,3.938639 -3.21153,4.195442 0,0.721406 1.11049,0.551917 3.35636,-0.512268 2.48431,-1.177169 5.34736,-1.993833 7.01092,-1.999816 1.43486,-0.0052 3.43107,0.925781 3.43107,1.600097 0,0.682676 -4.45336,4.907264 -8.95028,8.490505 -4.71235,3.754901 -7.87968,6.679992 -7.64476,7.060095 0.26544,0.42949 3.01166,-0.189584 8.84466,-1.993827 6.47111,-2.001621 7.61304,-2.259806 7.90506,-1.787309 0.43355,0.701507 -7.48093,8.134778 -14.13949,13.279786 -3.69199,2.852765 -8.42368,6.597684 -10.51487,8.322044 -3.3053,2.725497 -3.817,3.300586 -3.91574,4.40084 l -0.11359,1.265647 z"
       id="path51496" />
  </g>
</svg>
